<svg width="22" height="20" viewBox="0 0 22 20" fill="none" xmlns="http://www.w3.org/2000/svg">
<path d="M17.01 20C16.7616 20 16.5144 19.9238 16.3017 19.7719L11.3 16.1849L6.29832 19.7719C5.87224 20.0769 5.30045 20.0769 4.87682 19.767C4.4532 19.4602 4.2749 18.9154 4.43353 18.418L6.29894 12.3975L1.34213 8.90467C0.920971 8.59418 0.745742 8.0482 0.906829 7.55018C1.06915 7.0534 1.5315 6.71585 2.05411 6.71216L8.19325 6.70294L10.1478 0.831873C10.3126 0.334471 10.7768 0 11.3 0C11.8232 0 12.2874 0.335085 12.4528 0.831873L14.3742 6.70294L20.5447 6.71216C21.0691 6.71585 21.5321 7.05401 21.6926 7.55018C21.8543 8.0482 21.6791 8.59418 21.2573 8.90467L16.3005 12.3975L18.1659 18.418C18.3257 18.9154 18.1456 19.4602 17.7232 19.767C17.5099 19.9231 17.2602 20 17.01 20Z" fill="#FFAC33"/>
</svg>
