<svg width="426" height="440" viewBox="0 0 426 440" fill="none" xmlns="http://www.w3.org/2000/svg">
<rect width="552.585" height="440" rx="28.0228" fill="#E0E7FF"/>
<rect x="15" y="55" width="522" height="364" rx="16" fill="#374151"/>
<rect x="60.0149" y="92.9136" width="8.52868" height="8.52868" fill="#92D2FF"/>
<rect x="60.0149" y="108.752" width="8.52868" height="8.52868" fill="#92D2FF"/>
<rect x="60.0149" y="124.591" width="8.52868" height="8.52868" fill="#92D2FF"/>
<rect x="60.0149" y="140.43" width="8.52868" height="8.52868" fill="#92D2FF"/>
<rect x="60.0149" y="156.269" width="8.52868" height="8.52868" fill="#92D2FF"/>
<rect x="60.0149" y="172.108" width="8.52868" height="8.52868" fill="#92D2FF"/>
<rect x="60.0149" y="187.947" width="8.52868" height="8.52868" fill="#92D2FF"/>
<rect x="60.0149" y="203.786" width="8.52868" height="8.52868" fill="#92D2FF"/>
<rect x="60.0149" y="251.303" width="8.52868" height="8.52868" fill="#92D2FF"/>
<rect x="60.0149" y="267.142" width="8.52868" height="8.52868" fill="#92D2FF"/>
<rect x="60.0149" y="282.981" width="8.52868" height="8.52868" fill="#92D2FF"/>
<rect x="60.0149" y="298.82" width="8.52868" height="8.52868" fill="#92D2FF"/>
<rect x="60.0149" y="314.659" width="8.52868" height="8.52868" fill="#92D2FF"/>
<rect x="60.0149" y="330.498" width="8.52868" height="8.52868" fill="#92D2FF"/>
<rect x="60.0149" y="346.337" width="8.52868" height="8.52868" fill="#92D2FF"/>
<rect x="60.0149" y="362.176" width="8.52868" height="8.52868" fill="#92D2FF"/>
<rect x="60.0149" y="378.015" width="8.52868" height="8.52868" fill="#92D2FF"/>
<rect x="92.9114" y="92.9136" width="26.8044" height="8.52868" fill="white"/>
<rect x="100.222" y="251.303" width="26.8044" height="8.52868" fill="white"/>
<rect x="92.9114" y="108.752" width="67.0111" height="8.52868" fill="#FFC87A"/>
<rect x="133.118" y="267.142" width="96.2522" height="8.52868" fill="#FFC87A"/>
<rect x="100.222" y="330.498" width="58.4824" height="8.52868" fill="#FFC87A"/>
<rect x="169.669" y="108.752" width="91.3787" height="8.52868" fill="#619ED9"/>
<rect x="270.795" y="108.752" width="21.9309" height="8.52868" fill="#F6C090"/>
<rect x="92.9114" y="124.591" width="13.4022" height="8.52868" fill="#F17554"/>
<rect x="92.9114" y="172.108" width="23.1493" height="8.52868" fill="#F17554"/>
<rect x="100.222" y="140.43" width="29.2412" height="8.52868" fill="#F17554"/>
<rect x="134.336" y="140.43" width="13.4022" height="8.52868" fill="#619ED9"/>
<rect x="152.612" y="140.43" width="96.2522" height="8.52868" fill="white"/>
<rect x="253.738" y="140.43" width="24.3677" height="8.52868" fill="#F9BE94"/>
<rect x="282.979" y="140.43" width="120.62" height="8.52868" fill="#8FD3FE"/>
<rect x="408.473" y="140.43" width="57.264" height="8.52868" fill="#FFC87A"/>
<rect x="218.405" y="298.82" width="24.3677" height="8.52868" fill="#F9BE94"/>
<rect x="202.566" y="346.337" width="46.2985" height="8.52868" fill="#F9BE94"/>
<rect x="100.222" y="156.269" width="29.2412" height="8.52868" fill="#F17554"/>
<rect x="139.21" y="156.269" width="34.1147" height="8.52868" fill="#619ED9"/>
<rect x="183.072" y="156.269" width="96.2522" height="8.52868" fill="white"/>
<rect x="289.071" y="156.269" width="59.7008" height="8.52868" fill="#F57352"/>
<rect x="100.222" y="187.947" width="12.1838" height="8.52868" fill="#F17554"/>
<rect x="118.497" y="187.947" width="34.1147" height="8.52868" fill="#619ED9"/>
<rect x="158.704" y="187.947" width="37.7699" height="8.52868" fill="white"/>
<rect x="202.566" y="187.947" width="13.4022" height="8.52868" fill="#F9BE94"/>
<rect x="147.739" y="378.015" width="49.9537" height="8.52868" fill="#F17554"/>
<rect x="203.784" y="378.015" width="37.7699" height="8.52868" fill="white"/>
<rect x="247.646" y="378.015" width="41.425" height="8.52868" fill="#F9BE94"/>
<rect x="147.739" y="362.176" width="34.1147" height="8.52868" fill="#619ED9"/>
<rect x="187.945" y="362.176" width="37.7699" height="8.52868" fill="white"/>
<rect x="231.807" y="362.176" width="13.4022" height="8.52868" fill="#F9BE94"/>
<rect x="251.301" y="362.176" width="12.1838" height="8.52868" fill="#F17554"/>
<rect x="133.118" y="282.981" width="12.1838" height="8.52868" fill="#F17554"/>
<rect x="164.796" y="330.498" width="21.9309" height="8.52868" fill="#F17554"/>
<rect x="146.52" y="298.82" width="12.1838" height="8.52868" fill="#F17554"/>
<rect x="147.739" y="346.337" width="12.1838" height="8.52868" fill="#F17554"/>
<rect x="284.197" y="267.142" width="8.52868" height="8.52868" fill="#F9BE94"/>
<rect x="100.222" y="203.786" width="29.2412" height="8.52868" fill="#F17554"/>
<rect x="139.21" y="203.786" width="34.1147" height="8.52868" fill="#F9BE94"/>
<rect x="183.072" y="203.786" width="96.2522" height="8.52868" fill="white"/>
<rect x="289.071" y="203.786" width="59.7008" height="8.52868" fill="#8FD3FE"/>
<rect x="146.52" y="314.659" width="25.1799" height="8.52868" fill="#F17554"/>
<rect x="177.792" y="314.659" width="25.1799" height="8.52868" fill="white"/>
<rect x="209.064" y="314.659" width="65.7927" height="8.52868" fill="white"/>
<rect x="280.948" y="314.659" width="25.1799" height="8.52868" fill="#F27753"/>
<rect x="235.462" y="267.142" width="42.6434" height="8.52868" fill="#8FD3FE"/>
<rect x="167.233" y="298.82" width="42.6434" height="8.52868" fill="#8FD3FE"/>
<rect x="168.451" y="346.337" width="28.0228" height="8.52868" fill="#8FD3FE"/>
<rect x="125.808" y="92.9136" width="43.8618" height="8.52868" fill="white"/>
<rect x="133.118" y="251.303" width="43.8618" height="8.52868" fill="white"/>
<circle cx="22.7125" cy="29.2411" r="6.09191" fill="#F2764E"/>
<circle cx="43.4249" cy="29.2411" r="6.09191" fill="#94A3B8"/>
<circle cx="64.1376" cy="29.2411" r="6.09191" fill="#94A3B8"/>
</svg>
