<svg width="131" height="31" viewBox="0 0 131 31" fill="none" xmlns="http://www.w3.org/2000/svg">
<path d="M33.8333 26.631V10.1309H36.5595V11.7381C36.8691 11.1905 37.3571 10.7421 38.0238 10.3929C38.6905 10.0357 39.4603 9.85714 40.3333 9.85714C42.0397 9.85714 43.381 10.4365 44.3571 11.5952C45.3333 12.754 45.8214 14.2381 45.8214 16.0476C45.8214 17.8571 45.3095 19.3532 44.2857 20.5357C43.2698 21.7103 41.9206 22.2976 40.2381 22.2976C39.4206 22.2976 38.6945 22.1429 38.0595 21.8333C37.4325 21.5238 36.9564 21.131 36.631 20.6548V26.631H33.8333ZM36.6071 16.0476C36.6071 17.1667 36.9048 18.0714 37.5 18.7619C38.0952 19.4444 38.8611 19.7857 39.7976 19.7857C40.7421 19.7857 41.5119 19.4444 42.1071 18.7619C42.7024 18.0794 43 17.1746 43 16.0476C43 14.9444 42.7024 14.0556 42.1071 13.3809C41.5198 12.7063 40.75 12.369 39.7976 12.369C38.8611 12.369 38.0952 12.7103 37.5 13.3929C36.9048 14.0675 36.6071 14.9524 36.6071 16.0476Z" fill="#111827"/>
<path d="M47.1314 16C47.1314 15.0873 47.2902 14.2381 47.6076 13.4524C47.933 12.6587 48.3616 11.996 48.8933 11.4643C49.4251 10.9325 50.0402 10.5159 50.7386 10.2143C51.437 9.9127 52.1592 9.7619 52.9052 9.7619C54.7148 9.7619 56.1354 10.3175 57.1671 11.4286C58.1989 12.5397 58.7148 14.0397 58.7148 15.9286C58.7148 16.4206 58.687 16.7222 58.6314 16.8333H49.9529C49.9846 17.7302 50.314 18.4722 50.941 19.0595C51.5679 19.6389 52.3219 19.9286 53.2029 19.9286C54.7187 19.9286 55.7108 19.2381 56.1791 17.8571L58.56 18.6071C58.2267 19.7024 57.5918 20.6032 56.6552 21.3095C55.7187 22.0159 54.5679 22.369 53.2029 22.369C52.3933 22.369 51.6235 22.2262 50.8933 21.9405C50.1632 21.6468 49.5164 21.2341 48.9529 20.7024C48.3973 20.1706 47.9529 19.5 47.6195 18.6905C47.2941 17.873 47.1314 16.9762 47.1314 16ZM50.0243 14.7619H55.8576C55.8338 14.0159 55.5719 13.3929 55.0719 12.8929C54.5719 12.3849 53.8576 12.1309 52.9291 12.1309C52.0878 12.1309 51.4052 12.3968 50.8814 12.9286C50.3656 13.4603 50.0798 14.0714 50.0243 14.7619Z" fill="#111827"/>
<path d="M60.001 16C60.001 15.0873 60.1597 14.2381 60.4771 13.4524C60.8025 12.6587 61.2311 11.996 61.7629 11.4643C62.2946 10.9325 62.9097 10.5159 63.6081 10.2143C64.3065 9.9127 65.0287 9.7619 65.7748 9.7619C67.5843 9.7619 69.0049 10.3175 70.0367 11.4286C71.0684 12.5397 71.5843 14.0397 71.5843 15.9286C71.5843 16.4206 71.5565 16.7222 71.501 16.8333H62.8224C62.8541 17.7302 63.1835 18.4722 63.8105 19.0595C64.4375 19.6389 65.1914 19.9286 66.0724 19.9286C67.5883 19.9286 68.5803 19.2381 69.0486 17.8571L71.4295 18.6071C71.0962 19.7024 70.4613 20.6032 69.5248 21.3095C68.5883 22.0159 67.4375 22.369 66.0724 22.369C65.2629 22.369 64.493 22.2262 63.7629 21.9405C63.0327 21.6468 62.3859 21.2341 61.8224 20.7024C61.2668 20.1706 60.8224 19.5 60.4891 18.6905C60.1637 17.873 60.001 16.9762 60.001 16ZM62.8938 14.7619H68.7271C68.7033 14.0159 68.4414 13.3929 67.9414 12.8929C67.4414 12.3849 66.7271 12.1309 65.7986 12.1309C64.9573 12.1309 64.2748 12.3968 63.751 12.9286C63.2351 13.4603 62.9494 14.0714 62.8938 14.7619Z" fill="#111827"/>
<path d="M73.7991 22V10.1309H76.5491V12.0238C76.8268 11.3809 77.2713 10.8809 77.8824 10.5238C78.5014 10.1587 79.2038 9.97619 79.9895 9.97619C80.2514 9.97619 80.5014 10 80.7395 10.0476V12.9286C80.4141 12.8809 80.1046 12.8571 79.811 12.8571C77.684 12.8571 76.6205 14.0198 76.6205 16.3452V22H73.7991Z" fill="#111827"/>
<path d="M82.621 26.631V10.1309H85.3472V11.7381C85.6567 11.1905 86.1448 10.7421 86.8114 10.3929C87.4781 10.0357 88.2479 9.85714 89.121 9.85714C90.8273 9.85714 92.1686 10.4365 93.1448 11.5952C94.121 12.754 94.6091 14.2381 94.6091 16.0476C94.6091 17.8571 94.0972 19.3532 93.0733 20.5357C92.0575 21.7103 90.7083 22.2976 89.0257 22.2976C88.2083 22.2976 87.4821 22.1429 86.8472 21.8333C86.2202 21.5238 85.744 21.131 85.4186 20.6548V26.631H82.621ZM85.3948 16.0476C85.3948 17.1667 85.6924 18.0714 86.2876 18.7619C86.8829 19.4444 87.6487 19.7857 88.5853 19.7857C89.5297 19.7857 90.2995 19.4444 90.8948 18.7619C91.49 18.0794 91.7876 17.1746 91.7876 16.0476C91.7876 14.9444 91.49 14.0556 90.8948 13.3809C90.3075 12.7063 89.5376 12.369 88.5853 12.369C87.6487 12.369 86.8829 12.7103 86.2876 13.3929C85.6924 14.0675 85.3948 14.9524 85.3948 16.0476Z" fill="#111827"/>
<path d="M96.8476 22V10.1309H99.5976V12.0238C99.8754 11.3809 100.32 10.8809 100.931 10.5238C101.55 10.1587 102.252 9.97619 103.038 9.97619C103.3 9.97619 103.55 10 103.788 10.0476V12.9286C103.463 12.8809 103.153 12.8571 102.86 12.8571C100.733 12.8571 99.6691 14.0198 99.6691 16.3452V22H96.8476Z" fill="#111827"/>
<path d="M104.622 16C104.622 15.0873 104.781 14.2381 105.098 13.4524C105.424 12.6587 105.852 11.996 106.384 11.4643C106.916 10.9325 107.531 10.5159 108.229 10.2143C108.927 9.9127 109.65 9.7619 110.396 9.7619C112.205 9.7619 113.626 10.3175 114.658 11.4286C115.689 12.5397 116.205 14.0397 116.205 15.9286C116.205 16.4206 116.177 16.7222 116.122 16.8333H107.443C107.475 17.7302 107.804 18.4722 108.431 19.0595C109.058 19.6389 109.812 19.9286 110.693 19.9286C112.209 19.9286 113.201 19.2381 113.67 17.8571L116.05 18.6071C115.717 19.7024 115.082 20.6032 114.146 21.3095C113.209 22.0159 112.058 22.369 110.693 22.369C109.884 22.369 109.114 22.2262 108.384 21.9405C107.654 21.6468 107.007 21.2341 106.443 20.7024C105.888 20.1706 105.443 19.5 105.11 18.6905C104.785 17.873 104.622 16.9762 104.622 16ZM107.515 14.7619H113.348C113.324 14.0159 113.062 13.3929 112.562 12.8929C112.062 12.3849 111.348 12.1309 110.42 12.1309C109.578 12.1309 108.896 12.3968 108.372 12.9286C107.856 13.4603 107.57 14.0714 107.515 14.7619Z" fill="#111827"/>
<path d="M118.42 26.631V10.1309H121.146V11.7381C121.456 11.1905 121.944 10.7421 122.61 10.3929C123.277 10.0357 124.047 9.85714 124.92 9.85714C126.626 9.85714 127.968 10.4365 128.944 11.5952C129.92 12.754 130.408 14.2381 130.408 16.0476C130.408 17.8571 129.896 19.3532 128.872 20.5357C127.857 21.7103 126.507 22.2976 124.825 22.2976C124.007 22.2976 123.281 22.1429 122.646 21.8333C122.019 21.5238 121.543 21.131 121.218 20.6548V26.631H118.42ZM121.194 16.0476C121.194 17.1667 121.491 18.0714 122.087 18.7619C122.682 19.4444 123.448 19.7857 124.384 19.7857C125.329 19.7857 126.099 19.4444 126.694 18.7619C127.289 18.0794 127.587 17.1746 127.587 16.0476C127.587 14.9444 127.289 14.0556 126.694 13.3809C126.107 12.7063 125.337 12.369 124.384 12.369C123.448 12.369 122.682 12.7103 122.087 13.3929C121.491 14.0675 121.194 14.9524 121.194 16.0476Z" fill="#111827"/>
<path d="M12.3832 10.8337C11.892 11.3356 11.892 12.1494 12.3832 12.6512L18.92 19.3295C19.4113 19.8314 19.4113 20.6451 18.92 21.147L12.3832 27.8253C11.892 28.3272 11.892 29.1409 12.3832 29.6428L13.3432 30.6236C13.8345 31.1255 14.631 31.1255 15.1222 30.6236L24.398 21.147C24.8893 20.6451 24.8893 19.8314 24.398 19.3295L15.1222 9.85296C14.631 9.35106 13.8345 9.35106 13.3432 9.85296L12.3832 10.8337Z" fill="#4F46E5"/>
<path d="M12.3832 20.1663C12.8745 19.6644 12.8745 18.8506 12.3832 18.3487L5.84645 11.6705C5.35519 11.1686 5.35519 10.3549 5.84645 9.85296L12.3832 3.17471C12.8745 2.67281 12.8745 1.85907 12.3832 1.35717L11.4233 0.376425C10.932 -0.125474 10.1355 -0.125475 9.64422 0.376424L0.36845 9.85296C-0.122816 10.3549 -0.122817 11.1686 0.368449 11.6705L9.64422 21.147C10.1355 21.6489 10.932 21.6489 11.4233 21.147L12.3832 20.1663Z" fill="#4F46E5"/>
</svg>
