<svg width="31" height="31" viewBox="0 0 31 31" fill="none" xmlns="http://www.w3.org/2000/svg">
<path d="M15.3832 10.8337C14.892 11.3356 14.892 12.1494 15.3832 12.6512L21.92 19.3295C22.4113 19.8314 22.4113 20.6451 21.92 21.147L15.3832 27.8253C14.892 28.3272 14.892 29.1409 15.3832 29.6428L16.3432 30.6236C16.8345 31.1255 17.631 31.1255 18.1222 30.6236L27.398 21.147C27.8893 20.6451 27.8893 19.8314 27.398 19.3295L18.1222 9.85296C17.631 9.35106 16.8345 9.35106 16.3432 9.85296L15.3832 10.8337Z" fill="#4F46E5"/>
<path d="M15.3832 20.1663C15.8745 19.6644 15.8745 18.8506 15.3832 18.3487L8.84645 11.6705C8.35519 11.1686 8.35519 10.3549 8.84645 9.85296L15.3832 3.17471C15.8745 2.67281 15.8745 1.85907 15.3832 1.35717L14.4233 0.376425C13.932 -0.125474 13.1355 -0.125475 12.6442 0.376424L3.36845 9.85296C2.87718 10.3549 2.87718 11.1686 3.36845 11.6705L12.6442 21.147C13.1355 21.6489 13.932 21.6489 14.4233 21.147L15.3832 20.1663Z" fill="#4F46E5"/>
</svg>
